<svg fill="none" width="32" height="32" xmlns="http://www.w3.org/2000/svg" viewBox="0 0 32 32">
  <g clip-path="url(#a)">
    <path d="M28.444 5.333H3.555a1.778 1.778 0 0 0-1.778 1.778V24.89a1.778 1.778 0 0 0 1.778 1.778h24.889a1.778 1.778 0 0 0 1.778-1.778V7.111a1.778 1.778 0 0 0-1.778-1.777ZM27.075 24.89H5.031l6.222-6.436-1.28-1.235-6.418 6.64V8.462l11.049 10.996a1.777 1.777 0 0 0 2.507 0L28.444 8.187v15.555L21.902 17.2l-1.254 1.253 6.427 6.436ZM4.72 7.111h22.284L15.857 18.196 4.72 7.11Z" fill="#fff"/>
  </g>
  <defs>
    <clipPath id="a">
      <path fill="#fff" d="M0 0h32v32H0z"/>
    </clipPath>
  </defs>
</svg>