<svg xmlns="http://www.w3.org/2000/svg" fill="none" width="30" height="30" viewBox="0 0 30 30">
  <path fill="#fff" d="M24.375 0c1.55 0 2.874.55 3.975 1.65C29.45 2.75 30 4.076 30 5.625v18.75c0 1.55-.55 2.874-1.65 3.975-1.1 1.1-2.426 1.65-3.975 1.65h-3.672V18.379h3.887l.586-4.531h-4.473v-2.891c0-.73.153-1.276.46-1.64.305-.365.9-.547 1.786-.547l2.383-.02V4.707c-.82-.117-1.98-.176-3.477-.176-1.77 0-3.186.521-4.248 1.563-1.06 1.041-1.591 2.513-1.591 4.414v3.34h-3.907v4.53h3.907V30H5.625c-1.55 0-2.874-.55-3.975-1.65C.55 27.25 0 25.924 0 24.375V5.625c0-1.55.55-2.874 1.65-3.975C2.75.55 4.076 0 5.625 0h18.75Z"/>
</svg>