<svg xmlns="http://www.w3.org/2000/svg" width="172" height="54" fill="none" viewBox="0 0 172 54">
  <path fill="#fff" d="M27.604 49.253c0-.245.039-.477.129-.696.09-.207.22-.4.4-.568a1.736 1.736 0 0 1 1.303-.516c.141 0 .296.026.49.065.18.051.374.129.567.258.194.116.374.296.516.541.155.245.245.542.271.916h-1.251c-.026-.206-.103-.361-.22-.464a.577.577 0 0 0-.4-.155.722.722 0 0 0-.45.168.551.551 0 0 0-.194.425c0 .039 0 .09.013.155.064.194.245.374.554.529.31.155.632.31.955.464.322.155.593.361.8.606.219.258.322.607.322 1.032 0 .336-.065.62-.18.865a1.86 1.86 0 0 1-.49.593c-.207.155-.426.27-.672.348a2.602 2.602 0 0 1-.696.103 2.23 2.23 0 0 1-1.019-.232 1.83 1.83 0 0 1-.71-.658c-.193-.296-.283-.632-.309-1.019h1.251c.013.271.103.465.258.594a.78.78 0 0 0 .555.206.984.984 0 0 0 .542-.155.54.54 0 0 0 .283-.387c.013-.077.026-.154.026-.232 0-.296-.09-.49-.27-.606-.194-.116-.504-.258-.968-.439-.452-.18-.8-.4-1.032-.645-.245-.245-.361-.606-.374-1.096Zm5.468.594c.554-.542 1.173-.813 1.818-.813.22 0 .413.039.606.09.181.052.362.117.53.207.154.09.309.193.464.335.154.13.283.284.386.439.31.425.465.877.465 1.38 0 .284-.052.58-.155.851-.09.284-.245.555-.438.8a1.692 1.692 0 0 1-.452.4 2.3 2.3 0 0 1-.606.245c-.232.051-.465.09-.697.09a3.62 3.62 0 0 1-.735-.09 3.05 3.05 0 0 1-.67-.271 2.229 2.229 0 0 1-.53-.439c-.412-.515-.618-1.057-.618-1.638 0-.567.206-1.083.632-1.586Zm.85.722a1.4 1.4 0 0 0-.347.942c0 .335.116.645.348.903.27.322.593.477.967.477.206 0 .4-.052.593-.142.181-.09.323-.206.413-.335a1.525 1.525 0 0 0 .22-1.38 1.331 1.331 0 0 0-.22-.4c-.284-.31-.632-.478-1.044-.478-.375 0-.684.142-.93.413Zm6.528-2.967h1.187l1.38 2.838 1.38-2.838h1.187l-1.974 3.883v2.308h-1.186v-2.309l-1.974-3.882Zm5.726 2.245c.567-.542 1.174-.813 1.832-.813.206 0 .412.039.593.09.193.052.374.117.529.207.167.09.322.193.477.335.142.13.27.284.387.439.31.425.464.877.464 1.38 0 .284-.051.58-.154.851a2.854 2.854 0 0 1-.44.8 1.7 1.7 0 0 1-.45.4 2.249 2.249 0 0 1-.62.245 3.01 3.01 0 0 1-.683.09 3.62 3.62 0 0 1-.735-.09 2.814 2.814 0 0 1-.671-.271 1.999 1.999 0 0 1-.529-.439c-.413-.515-.632-1.057-.632-1.638 0-.567.22-1.083.632-1.586Zm.864.722c-.232.271-.348.58-.348.942 0 .335.116.645.348.903.258.322.58.477.968.477.206 0 .4-.052.58-.142a1.05 1.05 0 0 0 .426-.335 1.524 1.524 0 0 0 .219-1.38 1.33 1.33 0 0 0-.22-.4c-.283-.31-.631-.478-1.044-.478-.387 0-.684.142-.929.413Zm4.555 1.11v-2.567h1.122v2.567c0 .374.09.657.284.877.193.219.412.335.67.335a.804.804 0 0 0 .439-.142c.129-.077.232-.22.322-.4.078-.18.116-.412.116-.67v-2.567h1.187v4.682h-.993v-.464a2.15 2.15 0 0 1-.645.503 1.587 1.587 0 0 1-1.393.013 1.933 1.933 0 0 1-.568-.465 2.182 2.182 0 0 1-.4-.748 3.155 3.155 0 0 1-.141-.954Zm7.442-3.019v-1.058h3.418v1.058h-1.11v5.133H60.16V48.66h-1.122Zm8.564 1.909v3.224H66.48v-2.696c0-.232-.038-.425-.129-.593a.883.883 0 0 0-.322-.36.94.94 0 0 0-.929.012.872.872 0 0 0-.374.374 1.01 1.01 0 0 0-.155.567v2.696h-1.11v-6.19h1.11v1.908c.194-.18.4-.31.632-.4.22-.09.439-.129.671-.129.297 0 .58.065.851.207.258.129.477.322.632.567.168.232.245.503.245.813Zm1.458-2.967h1.122v.929h-1.122v-.929Zm0 1.51h1.122v4.681h-1.122v-4.682Zm2.514.078h.993v.4c.117-.182.297-.31.516-.4a2.144 2.144 0 0 1 1.664.052c.284.115.516.308.697.566.18.258.27.58.27.955v3.031h-1.121v-2.76a.785.785 0 0 0-.142-.49.8.8 0 0 0-.374-.31 1.137 1.137 0 0 0-.49-.116.933.933 0 0 0-.633.232c-.167.155-.258.387-.258.684v2.76h-1.122v-4.605Zm6.657-1.588v3.56l1.444-2.05h1.38l-1.702 2.243 1.973 2.438h-1.51l-1.586-2.18v2.18H77.12v-6.19h1.11Zm6.255 0h1.187l1.38 2.838 1.38-2.838h1.187l-1.974 3.883v2.308H86.46v-2.309l-1.974-3.882Zm5.741 2.245c.554-.542 1.174-.813 1.831-.813.207 0 .4.039.594.09.193.052.36.117.529.207.154.09.31.193.464.335.155.13.284.284.4.439.296.425.451.877.451 1.38 0 .284-.038.58-.142.851a3.223 3.223 0 0 1-.438.8 1.77 1.77 0 0 1-.465.4 2.3 2.3 0 0 1-.606.245c-.232.051-.464.09-.696.09-.245 0-.49-.039-.736-.09a3.05 3.05 0 0 1-.67-.271 1.932 1.932 0 0 1-.516-.439c-.426-.515-.632-1.057-.632-1.638 0-.567.206-1.083.632-1.586Zm.851.722c-.22.271-.335.58-.335.942 0 .335.116.645.335.903.27.322.593.477.968.477.206 0 .4-.052.593-.142.18-.09.322-.206.413-.335a1.525 1.525 0 0 0 .219-1.38 1.1 1.1 0 0 0-.22-.4c-.283-.31-.632-.478-1.044-.478-.374 0-.684.142-.929.413Zm4.552 1.11v-2.567h1.122v2.567c0 .374.103.657.297.877.193.219.412.335.67.335a.733.733 0 0 0 .426-.142.854.854 0 0 0 .323-.4c.077-.18.129-.412.129-.67v-2.567h1.186v4.682h-.993v-.464a2.357 2.357 0 0 1-.658.503 1.549 1.549 0 0 1-1.38.013 1.812 1.812 0 0 1-.58-.465 2.428 2.428 0 0 1-.4-.748 3.155 3.155 0 0 1-.142-.954Zm7.637-1.11c.025-.258.103-.568.245-.916.142-.348.348-.684.619-1.006.258-.323.58-.58.967-.8.387-.206.826-.31 1.303-.31h.09c.374 0 .748.078 1.148.233.4.167.761.387 1.084.683.322.284.541.62.67.994h-1.315a2.778 2.778 0 0 0-.761-.58 1.891 1.891 0 0 0-.826-.194c-.348 0-.683.103-.993.296a2.27 2.27 0 0 0-.761.761c-.181.31-.284.632-.284.968 0 .387.116.748.336 1.07.219.323.516.58.851.761.348.194.696.284 1.045.284.271 0 .503-.052.722-.155.206-.116.387-.284.542-.503h1.38c-.155.4-.4.748-.722 1.02-.336.27-.697.464-1.084.58-.387.116-.735.18-1.058.18-.038 0-.09 0-.167-.013a3.35 3.35 0 0 1-2.141-.967 3.1 3.1 0 0 1-.645-1.032 3.826 3.826 0 0 1-.245-1.354Zm7.119.851c.038-.413.116-.774.245-1.096.142-.31.309-.555.516-.749.206-.193.438-.335.683-.438.245-.09.503-.13.774-.13.349 0 .671.078.981.22.309.155.541.361.683.62v-.736h1.058v4.747h-1.058v-.594c-.155.22-.374.4-.671.53a2.28 2.28 0 0 1-1.844 0 2.304 2.304 0 0 1-.722-.543 2.485 2.485 0 0 1-.478-.825 3.168 3.168 0 0 1-.167-1.006Zm2.502 1.444c.503-.025.864-.154 1.071-.386.206-.246.309-.568.309-.994a1.5 1.5 0 0 0-.18-.722 1.447 1.447 0 0 0-.516-.49 1.533 1.533 0 0 0-.684-.168 1.58 1.58 0 0 0-.684.168 1.41 1.41 0 0 0-.503.49 1.38 1.38 0 0 0-.193.722c0 .297.064.542.206.748.129.207.297.374.516.478.207.103.426.154.658.154Zm3.767-3.674h.993v.4c.117-.182.297-.31.529-.4a2.124 2.124 0 0 1 1.651.052c.284.115.516.308.71.566.18.258.271.58.271.955v3.031h-1.123v-2.76a.795.795 0 0 0-.154-.49.806.806 0 0 0-.374-.31 1.098 1.098 0 0 0-.491-.116.934.934 0 0 0-.632.232c-.167.155-.258.387-.258.684v2.76h-1.122v-4.605Z"/>
  <path fill="#FF8C32" d="M124.29 50.569c.026-.258.103-.568.245-.916.142-.348.348-.684.606-1.006a3.51 3.51 0 0 1 .981-.8c.387-.206.812-.31 1.302-.31h.091c.361 0 .748.078 1.148.233.399.167.761.387 1.083.683.31.284.542.62.671.994h-1.316a2.644 2.644 0 0 0-.774-.58 1.795 1.795 0 0 0-.812-.194c-.349 0-.684.103-1.006.296-.31.194-.568.452-.749.761-.193.31-.283.632-.283.968 0 .387.116.748.335 1.07a2.3 2.3 0 0 0 .851.761c.349.194.697.284 1.045.284.258 0 .503-.052.722-.155.207-.116.387-.284.529-.503h1.393c-.154.4-.4.748-.722 1.02-.335.27-.696.464-1.083.58-.387.116-.736.18-1.058.18-.039 0-.103 0-.168-.013a3.285 3.285 0 0 1-1.174-.296 3.245 3.245 0 0 1-.967-.671 3.116 3.116 0 0 1-.645-1.032 3.557 3.557 0 0 1-.245-1.354Zm7.778-.722c.567-.542 1.173-.813 1.831-.813.207 0 .413.039.593.09.194.052.375.117.529.207.168.09.323.193.465.335.154.13.283.284.4.439.309.425.464.877.464 1.38 0 .284-.052.58-.155.851a2.86 2.86 0 0 1-.438.8 1.713 1.713 0 0 1-.452.4 2.23 2.23 0 0 1-.619.245c-.219.051-.451.09-.684.09a3.62 3.62 0 0 1-.735-.09 2.827 2.827 0 0 1-.671-.271 1.985 1.985 0 0 1-.528-.439c-.413-.515-.632-1.057-.632-1.638 0-.567.219-1.083.632-1.586Zm.864.722c-.232.271-.348.58-.348.942 0 .335.116.645.348.903.258.322.58.477.967.477.207 0 .4-.052.581-.142a1 1 0 0 0 .412-.335 1.44 1.44 0 0 0 .297-.916c0-.168-.026-.323-.064-.465a1.12 1.12 0 0 0-.233-.4c-.283-.309-.632-.477-1.044-.477a1.16 1.16 0 0 0-.916.413Zm8.1-1.045v-1.922h1.122v6.191h-1.058v-.657a1.407 1.407 0 0 1-.683.593 2.12 2.12 0 0 1-.826.193c-.4 0-.774-.103-1.148-.322a2.67 2.67 0 0 1-.89-.89 2.366 2.366 0 0 1-.335-1.226c0-.49.116-.928.348-1.315a2.48 2.48 0 0 1 .916-.877 2.37 2.37 0 0 1 1.174-.297c.322 0 .58.039.761.116.18.078.387.207.619.413Zm-2.631 1.896c0 .297.064.542.193.748.129.22.297.374.49.477.207.104.426.155.645.155.361 0 .658-.116.929-.348.258-.245.413-.58.438-1.032v-.103c0-.258-.064-.465-.18-.658a1.35 1.35 0 0 0-.503-.426 1.573 1.573 0 0 0-.645-.141c-.348 0-.658.116-.929.348-.258.219-.413.554-.438.98Zm4.941 0c0-.348.09-.696.245-1.07.168-.361.426-.67.787-.929.374-.245.838-.374 1.406-.374.464 0 .877.104 1.251.297.361.194.645.477.851.864.194.374.297.826.297 1.355 0 .142 0 .296-.026.451h-3.56c.103.258.271.451.503.593.232.155.49.22.761.22.4 0 .722-.142.98-.413h1.187c-.09.27-.232.529-.426.76a2.435 2.435 0 0 1-.735.568 2.59 2.59 0 0 1-.942.245h-.103c-.335 0-.658-.064-.954-.193a2.684 2.684 0 0 1-.8-.555 2.476 2.476 0 0 1-.542-.773 2.244 2.244 0 0 1-.18-.852v-.193Zm2.515-1.25a1.56 1.56 0 0 0-.671.128 1.394 1.394 0 0 0-.464.31c-.116.13-.206.271-.258.426h2.567a1.296 1.296 0 0 0-.387-.606.979.979 0 0 0-.684-.258h-.103Z"/>
  <path fill="#fff" fill-rule="evenodd" d="M18.561 8.74 18.638 1 0 14.363v13.092l18.651 15.414-.026-9.249L2.812 20.49 18.56 8.74Zm134.429 0L152.912 1l18.639 13.363v13.092l-18.652 15.414.026-9.249 15.814-13.13L152.99 8.74Z" clip-rule="evenodd"/>
  <path fill="#fff" d="M43.081 9.681v6.024H36.31V8.7c0-.606-.09-1.032-.258-1.29-.18-.245-.464-.387-.864-.387-.658 0-.98.555-.98 1.677v6.191c0 .645.09 1.148.258 1.47.18.323.593.684 1.264 1.071l4.18 2.4c.837.476 1.495 1.005 1.973 1.599.464.593.786 1.238.954 1.922.168.683.245 1.521.245 2.515v8.32c0 1.844-.077 3.263-.232 4.217-.168.967-.503 1.728-1.032 2.283-.529.555-1.303.929-2.309 1.122-1.006.207-2.463.31-4.32.31-1.807 0-3.2-.116-4.193-.336-.993-.206-1.754-.58-2.296-1.122-.542-.529-.903-1.315-1.083-2.321-.194-1.02-.284-2.4-.284-4.154v-8.81h6.875v9.713c0 .593.09 1.02.258 1.303.18.284.464.425.864.425.658 0 .98-.58.98-1.728v-8.436c0-.67-.09-1.16-.258-1.483-.18-.31-.593-.645-1.25-1.006L30.427 21.6c-1.2-.71-2.012-1.548-2.451-2.528-.426-.967-.645-2.206-.645-3.702V9.681c0-1.754.103-3.147.31-4.192.193-1.032.554-1.819 1.096-2.36.529-.53 1.29-.903 2.296-1.097.993-.206 2.399-.31 4.205-.31 2.412 0 4.14.207 5.21.607 1.071.4 1.78 1.135 2.116 2.218.348 1.071.516 2.787.516 5.134Zm7.03-7.701h6.617l1.78 15.35 1.625-15.35h6.424l-4.502 23.734v16.11h-7.068v-16.11L50.111 1.98Zm22.456 0h13.518v5.29h-3.354v34.555h-6.81V7.269h-3.354V1.98Zm19.464 0h6.617l1.78 15.35 1.625-15.35h6.424l-4.515 23.734v16.11h-7.068v-16.11L92.031 1.98Zm20.547 18.368c1.084-.026 1.961-.322 2.644-.877.671-.542 1.135-1.303 1.355-2.257.219-.968.335-2.606.348-4.928.013-2.334.052-3.87.116-4.604.129-1.174.348-2.116.697-2.825.335-.71.761-1.277 1.251-1.703.503-.425 1.148-.748 1.922-.967.528-.142 1.393-.207 2.592-.207h1.161v3.29h-.645c-1.432 0-2.386.27-2.85.786-.465.516-.71 1.69-.71 3.496 0 3.65-.077 5.959-.232 6.913-.245 1.497-.684 2.645-1.29 3.457-.619.8-1.574 1.522-2.889 2.141 1.548.645 2.67 1.626 3.379 2.941.684 1.303 1.032 3.457 1.032 6.45 0 2.721.013 4.334.052 4.85.116.941.387 1.599.838 1.973.452.387 1.342.567 2.657.567h.658v3.302h-1.174c-1.367 0-2.36-.116-2.966-.335a5.02 5.02 0 0 1-2.219-1.56c-.58-.71-.954-1.626-1.135-2.722-.181-1.097-.271-2.902-.284-5.405-.013-2.502-.129-4.243-.361-5.198-.219-.967-.658-1.715-1.328-2.283-.684-.555-1.548-.838-2.619-.877v-3.418Zm35.2 0v3.418c-1.084.039-1.961.323-2.631.877-.684.568-1.135 1.316-1.355 2.27-.232.955-.348 2.593-.361 4.915-.013 2.334-.039 3.856-.103 4.591-.129 1.187-.361 2.129-.709 2.838-.336.697-.761 1.264-1.265 1.69-.503.413-1.148.748-1.934.967-.529.155-1.38.232-2.593.232h-1.174v-3.302h.658c1.445 0 2.399-.258 2.877-.786.477-.516.709-1.69.709-3.509 0-3.482.052-5.688.168-6.617.219-1.548.67-2.773 1.341-3.702.684-.928 1.625-1.638 2.864-2.167-1.613-.76-2.761-1.78-3.419-3.03-.67-1.265-.993-3.393-.993-6.386 0-2.721-.013-4.346-.051-4.875-.091-.929-.362-1.574-.826-1.948-.451-.36-1.341-.554-2.67-.554h-.658V1.98h1.174c1.367 0 2.361.104 2.967.336.89.296 1.625.812 2.218 1.548.581.71.955 1.625 1.135 2.734.181 1.097.271 2.902.284 5.417.013 2.503.129 4.231.361 5.186.22.954.671 1.715 1.355 2.27.67.555 1.547.851 2.631.877Z"/>
  <path fill="#fff" stroke="#FF8C32" stroke-miterlimit="2.613" stroke-width="3.117" d="M112.578 20.348c1.084-.026 1.961-.322 2.644-.877.671-.542 1.135-1.303 1.355-2.257.219-.968.335-2.606.348-4.928.013-2.334.052-3.87.116-4.604.129-1.174.348-2.116.697-2.825.335-.71.761-1.277 1.251-1.703.503-.425 1.148-.748 1.922-.967.528-.142 1.393-.207 2.592-.207h1.161v3.29h-.645c-1.432 0-2.386.27-2.85.786-.465.516-.71 1.69-.71 3.496 0 3.65-.077 5.959-.232 6.913-.245 1.497-.684 2.645-1.29 3.457-.619.8-1.574 1.522-2.889 2.141 1.548.645 2.67 1.626 3.379 2.941.684 1.303 1.032 3.457 1.032 6.45 0 2.721.013 4.334.052 4.85.116.941.387 1.599.838 1.973.452.387 1.342.567 2.657.567h.658v3.302h-1.174c-1.367 0-2.36-.116-2.966-.335a5.02 5.02 0 0 1-2.219-1.56c-.58-.71-.954-1.626-1.135-2.722-.181-1.097-.271-2.902-.284-5.405-.013-2.502-.129-4.243-.361-5.198-.219-.967-.658-1.715-1.328-2.283-.684-.555-1.548-.838-2.619-.877v-3.418Zm35.2 0v3.418c-1.084.039-1.961.323-2.631.877-.684.568-1.135 1.316-1.355 2.27-.232.955-.348 2.593-.361 4.915-.013 2.334-.039 3.856-.103 4.591-.129 1.187-.361 2.129-.709 2.838-.336.697-.761 1.264-1.265 1.69-.503.413-1.148.748-1.934.967-.529.155-1.38.232-2.593.232h-1.174v-3.302h.658c1.445 0 2.399-.258 2.877-.786.477-.516.709-1.69.709-3.509 0-3.482.052-5.688.168-6.617.219-1.548.67-2.773 1.341-3.702.684-.928 1.625-1.638 2.864-2.167-1.613-.76-2.761-1.78-3.419-3.03-.67-1.265-.993-3.393-.993-6.386 0-2.721-.013-4.346-.051-4.875-.091-.929-.362-1.574-.826-1.948-.451-.36-1.341-.554-2.67-.554h-.658V1.98h1.174c1.367 0 2.361.104 2.967.336.89.296 1.625.812 2.218 1.548.581.71.955 1.625 1.135 2.734.181 1.097.271 2.902.284 5.417.013 2.503.129 4.231.361 5.186.22.954.671 1.715 1.355 2.27.67.555 1.547.851 2.631.877Z"/>
</svg>