<svg xmlns="http://www.w3.org/2000/svg" fill="none" width="30" height="30" viewBox="0 0 31 31">
	<path
		fill="#fff"
		d="M20.667 15.5c0-1.426-.505-2.644-1.514-3.653-1.01-1.01-2.227-1.514-3.653-1.514-1.426 0-2.644.505-3.653 1.514-1.01 1.01-1.514 2.227-1.514 3.653 0 1.426.505 2.644 1.514 3.653 1.01 1.01 2.227 1.514 3.653 1.514 1.426 0 2.644-.505 3.653-1.514 1.01-1.01 1.514-2.227 1.514-3.653Zm2.785 0c0 2.207-.774 4.084-2.321 5.63-1.547 1.548-3.424 2.322-5.631 2.322-2.207 0-4.084-.774-5.63-2.321-1.548-1.547-2.322-3.424-2.322-5.631 0-2.207.774-4.084 2.321-5.63 1.547-1.548 3.424-2.322 5.631-2.322 2.207 0 4.084.774 5.63 2.321 1.548 1.547 2.322 3.424 2.322 5.631Zm2.18-8.275c0 .512-.182.949-.545 1.312-.364.363-.801.545-1.312.545s-.949-.182-1.312-.545a1.788 1.788 0 0 1-.545-1.312c0-.511.182-.948.545-1.312.363-.363.8-.545 1.312-.545.511 0 .948.182 1.312.545.363.364.544.801.544 1.312ZM15.5 2.785l-1.544-.01c-.935-.007-1.645-.007-2.13 0-.484.007-1.133.027-1.947.06-.814.034-1.507.102-2.079.202a8.133 8.133 0 0 0-1.443.374 5.266 5.266 0 0 0-1.776 1.17 5.236 5.236 0 0 0-1.17 1.776A8.11 8.11 0 0 0 3.037 7.8c-.1.572-.168 1.265-.201 2.08a74.773 74.773 0 0 0-.06 1.947 92.128 92.128 0 0 0 0 2.13l.01 1.543-.01 1.544a92.149 92.149 0 0 0 0 2.13c.006.484.026 1.133.06 1.947.033.814.1 1.507.201 2.079.101.571.226 1.052.374 1.443.269.672.66 1.264 1.17 1.776a5.236 5.236 0 0 0 1.776 1.17c.39.148.872.273 1.443.374.572.1 1.265.168 2.08.201a74.78 74.78 0 0 0 1.947.06c.484.008 1.194.008 2.13 0l1.543-.01 1.544.01c.935.008 1.645.008 2.13 0a74.785 74.785 0 0 0 1.947-.06 15.89 15.89 0 0 0 2.079-.201 8.09 8.09 0 0 0 1.443-.374 5.236 5.236 0 0 0 1.776-1.17 5.236 5.236 0 0 0 1.17-1.776 8.09 8.09 0 0 0 .374-1.444c.1-.571.168-1.264.201-2.078a69.76 69.76 0 0 0 .06-1.948c.008-.484.008-1.194 0-2.13l-.01-1.543.01-1.544c.008-.935.008-1.645 0-2.13a74.78 74.78 0 0 0-.06-1.947 15.99 15.99 0 0 0-.201-2.079 8.091 8.091 0 0 0-.374-1.443 5.236 5.236 0 0 0-1.17-1.776 5.236 5.236 0 0 0-1.776-1.17 8.092 8.092 0 0 0-1.444-.374 16.03 16.03 0 0 0-2.078-.201 74.779 74.779 0 0 0-1.948-.06 92.128 92.128 0 0 0-2.13 0l-1.543.01ZM31 15.5c0 3.081-.034 5.214-.1 6.398-.135 2.798-.97 4.965-2.503 6.498-1.534 1.534-3.7 2.369-6.5 2.503-1.183.067-3.316.101-6.397.101-3.081 0-5.214-.034-6.398-.1-2.798-.135-4.965-.97-6.498-2.503-1.534-1.534-2.369-3.7-2.503-6.5C.034 20.715 0 18.582 0 15.5c0-3.081.034-5.214.1-6.398.135-2.798.97-4.965 2.504-6.498C4.137 1.07 6.304.235 9.102.1 10.286.034 12.42 0 15.5 0c3.081 0 5.214.034 6.398.1 2.798.135 4.965.97 6.498 2.504 1.534 1.533 2.369 3.7 2.503 6.498.067 1.184.101 3.317.101 6.398Z"
	/>
</svg>