<svg xmlns="http://www.w3.org/2000/svg" fill="none" width="30" height="30" viewBox="0 0 30 30">
	<path
		fill="#fff"
		d="M0 0v30h30V0H0Zm7.357 5.898c1.188.013 2.359.833 2.41 2.252.025 1.262-1.074 2.223-2.44 2.252h-.034c-1.176-.013-2.325-.854-2.378-2.252.016-1.248 1.065-2.223 2.442-2.252Zm12.748 5.962c1.306.008 2.54.395 3.552 1.428 1.053 1.174 1.39 2.793 1.428 4.438v7.486h-4.314v-6.977c-.01-1.307-.457-2.896-2.188-2.95-1.014.011-1.73.6-2.219 1.586-.134.318-.153.682-.16 1.046v7.295h-4.311c.016-3.647.039-7.294.03-10.94 0-1.037-.01-1.734-.03-2.094h4.312v1.839c.366-.52.772-1.015 1.316-1.412.739-.527 1.626-.73 2.584-.745Zm-14.936.318h4.312v13.034H5.17V12.178Z"
	/>
</svg>