<svg xmlns="http://www.w3.org/2000/svg" fill="none" width="139" height="44" viewBox="0 0 139 44">
  <path fill="#06113C" d="M22.37 40.1c0-.2.03-.39.1-.57.07-.16.18-.32.32-.46a1.43 1.43 0 0 1 1.06-.41c.11 0 .24.02.4.05.14.04.3.1.46.2a1.55 1.55 0 0 1 .64 1.18h-1.02a.58.58 0 0 0-.18-.37.47.47 0 0 0-.32-.12.59.59 0 0 0-.37.13c-.1.1-.15.21-.15.35v.12c.06.16.2.3.46.43l.77.38c.26.12.48.29.65.49.18.2.26.49.26.83 0 .28-.05.5-.15.7a1.5 1.5 0 0 1-.94.77c-.19.05-.37.08-.56.08-.3 0-.58-.06-.83-.19-.24-.12-.43-.3-.57-.53a1.67 1.67 0 0 1-.25-.83h1.01c.01.22.08.38.2.49.13.11.28.16.46.16a.8.8 0 0 0 .44-.12.5.5 0 0 0 .23-.32l.02-.18c0-.25-.07-.4-.22-.5-.16-.09-.4-.2-.78-.35a2.35 2.35 0 0 1-.84-.52c-.2-.2-.3-.5-.3-.9Zm4.43.48a2.1 2.1 0 0 1 1.47-.66 2.15 2.15 0 0 1 .92.24 2.13 2.13 0 0 1 1.07 1.75c0 .23-.05.47-.13.69a1.95 1.95 0 0 1-.72.97 2.27 2.27 0 0 1-1.66.2 1.8 1.8 0 0 1-.97-.57c-.33-.43-.5-.87-.5-1.34 0-.46.17-.87.52-1.28Zm.69.58a1.13 1.13 0 0 0 0 1.5c.22.26.48.38.78.38.17 0 .32-.04.48-.11a.89.89 0 0 0 .34-.27 1.24 1.24 0 0 0 .17-1.12.97.97 0 0 0-.17-.32 1.11 1.11 0 0 0-.85-.4c-.3 0-.56.12-.75.34Zm5.29-2.4h.96l1.12 2.3 1.11-2.3h.96l-1.6 3.15v1.87h-.96V41.9l-1.6-3.15Zm4.63 1.82c.46-.44.96-.66 1.49-.66.17 0 .33.03.48.07a1.86 1.86 0 0 1 1.13.8 1.85 1.85 0 0 1 .25 1.8c-.08.24-.2.45-.36.65-.1.13-.22.23-.36.33a2.44 2.44 0 0 1-1.65.2 3 3 0 0 1-.55-.22c-.17-.1-.31-.22-.43-.36a2.1 2.1 0 0 1-.5-1.33 2 2 0 0 1 .5-1.28Zm.7.58a1.13 1.13 0 0 0 0 1.5c.21.26.48.38.79.38.17 0 .32-.04.47-.11a.85.85 0 0 0 .34-.27 1.23 1.23 0 0 0 .18-1.12.83.83 0 0 0-.18-.32 1.11 1.11 0 0 0-.84-.4.96.96 0 0 0-.76.34Zm3.69.9v-2.08h.91v2.08c0 .3.08.54.23.71a.7.7 0 0 0 .55.27c.12 0 .24-.04.35-.11a.7.7 0 0 0 .26-.32c.07-.15.1-.34.1-.55v-2.08h.96v3.8h-.8v-.38c-.16.18-.34.31-.53.4a1.29 1.29 0 0 1-1.13.02 1.55 1.55 0 0 1-.46-.38 1.77 1.77 0 0 1-.32-.6c-.07-.23-.12-.5-.12-.78Zm6.04-2.44v-.86h2.76v.86h-.9v4.16h-.96v-4.16h-.9Zm6.93 1.54v2.62h-.9v-2.19a.99.99 0 0 0-.1-.48.72.72 0 0 0-.27-.3.76.76 0 0 0-.75.02.7.7 0 0 0-.3.3.82.82 0 0 0-.13.46v2.19h-.9v-5.02h.9v1.55a1.57 1.57 0 0 1 1.05-.43 1.46 1.46 0 0 1 1.2.63c.14.18.2.4.2.65Zm1.19-2.4h.9v.75h-.9v-.75Zm0 1.22h.9v3.8h-.9v-3.8Zm2.04.07h.8v.32c.1-.15.24-.25.42-.32a1.7 1.7 0 0 1 1.34.04 1.27 1.27 0 0 1 .79 1.23v2.46h-.91v-2.24a.64.64 0 0 0-.12-.4.65.65 0 0 0-.3-.25.92.92 0 0 0-.4-.1.7.7 0 0 0-.5.2.72.72 0 0 0-.22.55v2.24H58v-3.73Zm5.39-1.29v2.88l1.17-1.66h1.11L64.3 41.8l1.6 1.98h-1.23L63.4 42v1.77h-.9v-5.02h.9Zm5.07 0h.96l1.11 2.3 1.12-2.3h.96l-1.6 3.15v1.87h-.96V41.9l-1.6-3.15Zm4.64 1.82a2.1 2.1 0 0 1 1.49-.66 1.93 1.93 0 0 1 1.6.87 1.95 1.95 0 0 1 .25 1.8c-.07.24-.2.45-.35.65-.1.13-.21.23-.37.33a2.27 2.27 0 0 1-1.66.2 2.47 2.47 0 0 1-.54-.22 2.04 2.04 0 0 1-.93-1.68c0-.47.17-.88.52-1.3Zm.7.58a1.18 1.18 0 0 0 0 1.5c.22.26.48.38.78.38.17 0 .32-.04.48-.11a.89.89 0 0 0 .33-.27 1.24 1.24 0 0 0 .18-1.12.89.89 0 0 0-.18-.32 1.11 1.11 0 0 0-.84-.4c-.3 0-.56.12-.75.34Zm3.68.9v-2.08h.91v2.08c0 .3.09.54.24.71a.7.7 0 0 0 .55.27.6.6 0 0 0 .34-.11.7.7 0 0 0 .26-.32c.07-.15.1-.34.1-.55v-2.08h.97v3.8h-.8v-.38a1.9 1.9 0 0 1-.54.4 1.26 1.26 0 0 1-1.12.02 1.47 1.47 0 0 1-.47-.38 1.97 1.97 0 0 1-.32-.6c-.07-.23-.12-.5-.12-.78Zm6.19-.9a3.07 3.07 0 0 1 1.48-2.2c.32-.17.67-.25 1.06-.25h.07c.3 0 .61.06.93.19.33.13.62.3.88.55.26.23.44.5.55.8h-1.07c-.2-.2-.4-.36-.62-.47a1.5 1.5 0 0 0-1.47.08c-.26.16-.46.37-.62.62-.14.26-.23.52-.23.79 0 .31.1.6.28.87a1.95 1.95 0 0 0 1.53.84c.22 0 .4-.04.59-.12.16-.1.31-.23.44-.41h1.11c-.12.32-.32.6-.58.82a2.71 2.71 0 0 1-1.74.62h-.13a2.72 2.72 0 0 1-1.74-.8c-.22-.22-.4-.5-.52-.83a3.1 3.1 0 0 1-.2-1.1Zm5.77.69c.03-.33.1-.62.2-.88a1.8 1.8 0 0 1 .97-.97 1.88 1.88 0 0 1 1.42.07c.25.13.44.3.56.5v-.59h.85v3.85h-.85v-.48c-.13.18-.3.32-.55.43a1.8 1.8 0 0 1-2.46-1.11 2.56 2.56 0 0 1-.14-.82Zm2.03 1.17c.4-.02.7-.12.87-.3.16-.2.25-.47.25-.81 0-.22-.06-.41-.15-.59-.1-.17-.25-.3-.42-.4a1.24 1.24 0 0 0-.55-.13c-.2 0-.38.05-.56.13a1.12 1.12 0 0 0-.56.98 1 1 0 0 0 .17.61c.1.17.24.3.41.39.17.08.35.12.54.12Zm3.05-2.97h.8v.32c.1-.15.25-.25.43-.32a1.72 1.72 0 0 1 1.34.04c.23.1.42.25.58.46.14.2.22.47.22.77v2.46h-.91v-2.24a.64.64 0 0 0-.13-.4.65.65 0 0 0-.3-.25.89.89 0 0 0-.4-.1c-.2 0-.36.07-.51.2-.14.12-.21.3-.21.55v2.24h-.91v-3.73Z"/>
  <path fill="#FF8C32" d="M100.7 41.16a3.32 3.32 0 0 1 .69-1.56c.23-.25.49-.46.8-.64a2.2 2.2 0 0 1 1.06-.25h.07a2.71 2.71 0 0 1 1.81.74c.25.23.44.5.54.8h-1.06c-.2-.2-.41-.36-.63-.47a1.52 1.52 0 0 0-1.47.09 1.8 1.8 0 0 0-.61.61c-.16.26-.23.52-.23.79 0 .31.1.6.27.87.18.26.4.47.69.61.28.16.56.23.85.23.2 0 .4-.04.58-.12.17-.1.31-.23.43-.41h1.13c-.13.32-.33.6-.59.82a2.67 2.67 0 0 1-1.73.62h-.14a2.66 2.66 0 0 1-1.73-.8 2.8 2.8 0 0 1-.72-1.93Zm6.3-.58c.47-.44.96-.66 1.5-.66.16 0 .33.03.47.07a1.73 1.73 0 0 1 .8.44c.13.1.24.23.33.36a1.85 1.85 0 0 1 .25 1.8c-.08.24-.2.45-.35.65a1.48 1.48 0 0 1-.87.53 2.44 2.44 0 0 1-1.15 0c-.2-.06-.38-.13-.54-.22a1.4 1.4 0 0 1-.43-.36 2.1 2.1 0 0 1-.51-1.33 2 2 0 0 1 .5-1.28Zm.7.58a1.13 1.13 0 0 0 0 1.5 1 1 0 0 0 .8.38c.16 0 .32-.04.46-.11a.82.82 0 0 0 .34-.27c.17-.22.24-.46.24-.74 0-.14-.02-.27-.05-.38a.9.9 0 0 0-.2-.32 1.11 1.11 0 0 0-.84-.4c-.3 0-.55.12-.74.34Zm6.57-.84v-1.56h.91v5.02h-.86v-.54c-.12.21-.3.38-.55.48-.24.1-.47.16-.67.16a1.8 1.8 0 0 1-.93-.26c-.3-.18-.53-.42-.72-.72a2.07 2.07 0 0 1 .01-2.06 2 2 0 0 1 1.7-.95 1.46 1.46 0 0 1 1.11.43Zm-2.13 1.53a1.1 1.1 0 0 0 .55 1c.17.08.35.12.53.12.29 0 .53-.1.75-.28.2-.2.33-.47.36-.84v-.08a1 1 0 0 0-.15-.53 1.09 1.09 0 0 0-.93-.46c-.28 0-.53.1-.75.28a1.1 1.1 0 0 0-.36.8Zm4 0c0-.28.08-.56.2-.86.14-.3.35-.55.64-.76.3-.2.68-.3 1.14-.3.38 0 .7.08 1.01.24.3.16.53.39.7.7.15.3.23.67.23 1.1 0 .11 0 .24-.02.36h-2.88c.08.21.22.37.4.48.2.13.4.18.62.18.33 0 .59-.11.8-.33h.96a1.9 1.9 0 0 1-.35.61 1.97 1.97 0 0 1-1.36.66h-.08a1.93 1.93 0 0 1-1.42-.6 1.82 1.82 0 0 1-.58-1.32v-.16Zm2.04-1.01a1.26 1.26 0 0 0-.92.35.78.78 0 0 0-.2.35h2.07a1.05 1.05 0 0 0-.31-.5.8.8 0 0 0-.55-.2h-.09Z"/>
  <path fill="#06113C" fill-rule="evenodd" d="M15.04 7.27 15.1 1 0 11.83v10.6l15.11 12.5-.02-7.5L2.28 16.8l12.76-9.52Zm108.92 0L123.9 1 139 11.83v10.6l-15.11 12.5.02-7.5 12.81-10.64-12.76-9.52Z" clip-rule="evenodd"/>
  <path fill="#06113C" d="M34.9 8.03v4.88h-5.48V7.24c0-.5-.07-.84-.21-1.05-.15-.2-.38-.3-.7-.3-.53 0-.8.44-.8 1.35v5.02c0 .52.08.93.21 1.19.15.26.49.55 1.03.86l3.39 1.95c.67.39 1.2.81 1.6 1.3.37.48.63 1 .77 1.55.13.56.2 1.23.2 2.04v6.74c0 1.5-.07 2.64-.2 3.42-.13.78-.4 1.4-.83 1.85a3.4 3.4 0 0 1-1.87.9c-.81.17-2 .26-3.5.26-1.46 0-2.6-.1-3.4-.27a3.59 3.59 0 0 1-1.86-.91 3.41 3.41 0 0 1-.87-1.88c-.16-.83-.23-1.95-.23-3.37v-7.14h5.57v7.87c0 .48.07.83.2 1.06.15.23.38.34.7.34.54 0 .8-.47.8-1.4V21.8c0-.55-.07-.94-.21-1.2a2.63 2.63 0 0 0-1.01-.82l-3.55-2.08a4.64 4.64 0 0 1-1.98-2.05 7.5 7.5 0 0 1-.52-3v-4.6c0-1.43.08-2.56.25-3.4.15-.84.45-1.48.88-1.92a3.5 3.5 0 0 1 1.86-.88c.81-.17 1.95-.25 3.41-.25 1.96 0 3.36.16 4.22.49.87.32 1.45.92 1.72 1.8.28.86.42 2.25.42 4.15Zm5.7-6.23h5.36l1.45 12.43L48.72 1.8h5.2l-3.64 19.23v13.06h-5.73V21.02L40.6 1.8Zm18.2 0h10.95v4.28h-2.72v28h-5.51v-28H58.8V1.79Zm15.77 0h5.36l1.44 12.43L82.7 1.8h5.2l-3.65 19.23v13.06H78.5V21.02L74.57 1.8Zm16.65 14.88a3.42 3.42 0 0 0 2.14-.71 3.2 3.2 0 0 0 1.1-1.83 21 21 0 0 0 .28-4c0-1.89.04-3.13.1-3.73.1-.95.28-1.71.56-2.29.27-.57.61-1.03 1.01-1.37.4-.35.93-.61 1.56-.79a9.08 9.08 0 0 1 2.1-.17h.94v2.67h-.52c-1.16 0-1.94.22-2.31.64-.38.41-.58 1.37-.58 2.83 0 2.96-.06 4.83-.19 5.6a6.39 6.39 0 0 1-1.04 2.8 6.27 6.27 0 0 1-2.34 1.74 5.29 5.29 0 0 1 2.74 2.38c.55 1.06.83 2.8.83 5.23 0 2.2.01 3.5.04 3.92.1.77.32 1.3.68 1.6.37.32 1.1.46 2.16.46h.53v2.68h-.95c-1.1 0-1.91-.1-2.4-.27a4.07 4.07 0 0 1-1.8-1.27 4.6 4.6 0 0 1-.92-2.2 31.6 31.6 0 0 1-.23-4.38 20.3 20.3 0 0 0-.3-4.21 3.27 3.27 0 0 0-1.07-1.85 3.45 3.45 0 0 0-2.12-.71v-2.77Zm28.52 0v2.77c-.88.03-1.59.26-2.13.7a3.25 3.25 0 0 0-1.1 1.85c-.19.77-.28 2.1-.3 3.98 0 1.89-.02 3.12-.08 3.72a7 7 0 0 1-.57 2.3 4.1 4.1 0 0 1-1.03 1.37c-.4.33-.93.6-1.56.78-.43.13-1.12.19-2.1.19h-.96v-2.68h.54c1.17 0 1.94-.2 2.33-.63.38-.42.57-1.37.57-2.85 0-2.82.04-4.6.14-5.36a6.65 6.65 0 0 1 1.09-3 5.42 5.42 0 0 1 2.31-1.75 5.77 5.77 0 0 1-2.76-2.46c-.55-1.02-.8-2.75-.8-5.17 0-2.2-.02-3.52-.05-3.95-.07-.76-.3-1.28-.67-1.58-.36-.3-1.09-.45-2.16-.45h-.54V1.79h.95c1.11 0 1.92.09 2.4.28a3.8 3.8 0 0 1 1.8 1.25c.48.57.78 1.32.93 2.22.14.88.22 2.35.23 4.39 0 2.02.1 3.42.29 4.2.18.77.54 1.39 1.1 1.84.54.45 1.25.69 2.13.7Z"/>
  <path fill="#FF8C32" stroke="#FF8C32" stroke-miterlimit="2.61" stroke-width="3.12" d="M91.22 16.68a3.42 3.42 0 0 0 2.14-.71 3.2 3.2 0 0 0 1.1-1.83 21 21 0 0 0 .28-4c0-1.89.04-3.13.1-3.73.1-.95.28-1.71.56-2.29.27-.57.61-1.03 1.01-1.37.4-.35.93-.61 1.56-.79a9.08 9.08 0 0 1 2.1-.17h.94v2.67h-.52c-1.16 0-1.94.22-2.31.64-.38.41-.58 1.37-.58 2.83 0 2.96-.06 4.83-.19 5.6a6.39 6.39 0 0 1-1.04 2.8 6.27 6.27 0 0 1-2.34 1.74 5.29 5.29 0 0 1 2.74 2.38c.55 1.06.83 2.8.83 5.23 0 2.2.01 3.5.04 3.92.1.77.32 1.3.68 1.6.37.32 1.1.46 2.16.46h.53v2.68h-.95c-1.1 0-1.91-.1-2.4-.27a4.07 4.07 0 0 1-1.8-1.27 4.6 4.6 0 0 1-.92-2.2 31.6 31.6 0 0 1-.23-4.38 20.3 20.3 0 0 0-.3-4.21 3.27 3.27 0 0 0-1.07-1.85 3.45 3.45 0 0 0-2.12-.71v-2.77Zm28.52 0v2.77c-.88.03-1.59.26-2.13.7a3.25 3.25 0 0 0-1.1 1.85c-.19.77-.28 2.1-.3 3.98 0 1.89-.02 3.12-.08 3.72a7 7 0 0 1-.57 2.3 4.1 4.1 0 0 1-1.03 1.37c-.4.33-.93.6-1.56.78-.43.13-1.12.19-2.1.19h-.96v-2.68h.54c1.17 0 1.94-.2 2.33-.63.38-.42.57-1.37.57-2.85 0-2.82.04-4.6.14-5.36a6.65 6.65 0 0 1 1.09-3 5.42 5.42 0 0 1 2.31-1.75 5.77 5.77 0 0 1-2.76-2.46c-.55-1.02-.8-2.75-.8-5.17 0-2.2-.02-3.52-.05-3.95-.07-.76-.3-1.28-.67-1.58-.36-.3-1.09-.45-2.16-.45h-.54V1.79h.95c1.11 0 1.92.09 2.4.28a3.8 3.8 0 0 1 1.8 1.25c.48.57.78 1.32.93 2.22.14.88.22 2.35.23 4.39 0 2.02.1 3.42.29 4.2.18.77.54 1.39 1.1 1.84.54.45 1.25.69 2.13.7Z"/>
</svg>