<svg xmlns="http://www.w3.org/2000/svg" fill="none" width="30" height="30" viewBox="0 0 37 31">
	<path
		fill="#fff"
		d="M37 3.627c-.248.525-.708 1.189-1.382 1.99-.674.802-1.505 1.507-2.495 2.115.027.222.048.429.062.622.106 2.98-.604 6.072-1.589 8.648-1.909 4.788-4.834 8.642-9.012 11.26-4.358 2.512-9.432 3.046-14.107 2.591-3.104-.358-6.163-1.377-8.477-3.297 4.231.509 8.18-.939 11.302-3.276-3.468.088-5.987-2.434-7.177-5.35.536.141 1.097.124 1.609.083.63-.06 1.227-.119 1.815-.249-2.212-.717-4.147-2.036-5.157-4.023a8.71 8.71 0 0 1-.866-3.815c1.036.548 2.283 1.083 3.424 1.037-1.723-1.468-3.105-3.344-3.362-5.496-.162-1.793.284-3.431.928-4.956 2.578 2.849 5.47 5.193 8.807 6.636 2.281.94 4.556 1.442 6.909 1.452-.272-2.113-.06-4.156.928-5.89C20.323 1.846 22.02.764 23.924.226c2.724-.702 5.38.29 7.054 2.198 1.804-.196 3.533-1.001 4.908-1.825-.584 1.78-1.722 3.55-3.382 4.396A21.302 21.302 0 0 0 37 3.627Z"
	/>
</svg>